<svg xmlns="http://www.w3.org/2000/svg" xmlns:xlink="http://www.w3.org/1999/xlink" width="500" zoomAndPan="magnify" viewBox="0 0 375 374.999991" height="500" preserveAspectRatio="xMidYMid meet" version="1.0"><defs><g/><clipPath id="cd954223c1"><path d="M 111.113281 127.300781 L 120.871094 127.300781 L 120.871094 246.9375 L 111.113281 246.9375 Z M 111.113281 127.300781 " clip-rule="nonzero"/></clipPath></defs><g fill="#1f2122" fill-opacity="1"><g transform="translate(122.609161, 264.089414)"><g><path d="M 5.261719 0 L 19.289062 0 C 37.699219 0 52.777344 3.507812 68.207031 3.507812 C 122.214844 3.507812 147.816406 -39.628906 147.816406 -87.671875 C 147.816406 -135.714844 122.214844 -178.851562 68.207031 -178.851562 C 52.777344 -178.851562 37.699219 -175.34375 19.289062 -175.34375 L 5.261719 -175.34375 L 5.261719 -173.589844 C 20.339844 -173.589844 21.390625 -161.140625 21.390625 -126.597656 L 21.390625 -48.746094 C 21.390625 -14.203125 20.339844 -1.753906 5.261719 -1.753906 Z M 36.296875 -171.484375 C 46.464844 -174.640625 56.636719 -176.394531 68.035156 -176.394531 C 111.34375 -176.394531 132.734375 -135.539062 132.734375 -87.671875 C 132.734375 -39.804688 111.34375 1.050781 68.035156 1.050781 C 56.636719 1.050781 46.464844 -0.703125 36.296875 -3.859375 Z M 36.296875 -171.484375 "/></g></g></g><g clip-path="url(#cd954223c1)"><path fill="#ffffff" d="M 120.871094 127.300781 L 120.871094 246.9375 L 111.113281 246.9375 L 111.113281 127.300781 Z M 120.871094 127.300781 " fill-opacity="1" fill-rule="nonzero"/></g><g fill="#1f2122" fill-opacity="1"><g transform="translate(218.287658, 252.169007)"><g><path d="M -0.195312 -15.300781 C -0.261719 -16.28125 -0.457031 -17.257812 -0.652344 -17.777344 C -0.714844 -18.039062 -0.847656 -18.363281 -0.847656 -18.492188 C -0.847656 -18.625 -0.847656 -18.753906 -0.910156 -18.820312 C -0.910156 -18.820312 -1.042969 -19.015625 -1.042969 -19.210938 C -1.433594 -20.640625 -2.734375 -23.378906 -4.101562 -25.527344 L -4.753906 -26.566406 L -5.144531 -27.152344 L -6.511719 -29.042969 C -7.359375 -30.28125 -9.3125 -32.6875 -11.394531 -35.035156 L -12.699219 -36.53125 L -13.480469 -37.378906 L -14.847656 -38.746094 L -15.367188 -39.332031 L -22.402344 -46.753906 L -23.378906 -47.730469 L -23.898438 -48.316406 C -24.289062 -48.644531 -25.394531 -49.621094 -25.460938 -49.75 L -25.980469 -50.269531 L -26.957031 -51.183594 C -27.609375 -51.769531 -28.585938 -52.550781 -28.71875 -52.550781 C -28.78125 -52.550781 -28.78125 -52.613281 -28.78125 -52.679688 C -28.78125 -52.679688 -28.847656 -52.808594 -28.976562 -52.875 L -29.5625 -53.394531 L -30.085938 -53.851562 L -30.800781 -54.375 L -31.90625 -55.21875 L -32.558594 -55.675781 L -32.753906 -55.871094 C -32.820312 -55.871094 -34.382812 -57.042969 -34.773438 -57.304688 L -35.230469 -57.628906 L -35.683594 -58.019531 C -35.816406 -58.085938 -36.207031 -58.410156 -36.660156 -58.671875 C -37.117188 -58.996094 -37.441406 -59.257812 -37.441406 -59.320312 C -37.441406 -59.386719 -37.507812 -59.386719 -37.574219 -59.386719 C -37.636719 -59.453125 -37.898438 -59.515625 -38.160156 -59.710938 C -38.746094 -60.039062 -41.15625 -60.949219 -42.132812 -61.210938 C -43.433594 -61.601562 -44.734375 -61.667969 -45.125 -61.339844 C -46.296875 -60.429688 -46.492188 -57.695312 -45.777344 -54.046875 L -45.515625 -52.875 L -45.386719 -52.484375 C -45.320312 -52.160156 -44.34375 -49.230469 -44.148438 -48.839844 L -43.5625 -47.472656 C -42.914062 -45.90625 -42.71875 -45.453125 -42.523438 -45.320312 C -42.390625 -45.257812 -42.390625 -45.191406 -42.457031 -45.191406 L -42.457031 -45.125 C -42.390625 -45.0625 -42.261719 -44.867188 -42.195312 -44.671875 L -41.675781 -43.757812 L -41.414062 -43.171875 C -41.480469 -43.109375 -42.328125 -43.824219 -42.328125 -43.890625 C -42.328125 -43.953125 -42.390625 -44.019531 -42.390625 -43.953125 C -42.457031 -43.953125 -42.652344 -44.085938 -42.847656 -44.28125 C -43.367188 -44.867188 -44.214844 -45.582031 -44.476562 -45.777344 C -44.671875 -45.90625 -44.867188 -46.101562 -44.929688 -46.234375 C -45.0625 -46.363281 -45.125 -46.492188 -45.191406 -46.492188 L -45.582031 -46.882812 C -45.777344 -47.144531 -46.167969 -47.472656 -46.492188 -47.730469 L -47.210938 -48.382812 C -47.40625 -48.707031 -47.601562 -48.707031 -47.730469 -48.511719 C -47.863281 -48.253906 -47.863281 -48.1875 -47.796875 -47.992188 L -47.667969 -47.601562 L -47.601562 -47.210938 C -47.535156 -47.144531 -47.535156 -46.882812 -47.472656 -46.558594 L -47.273438 -41.546875 C -47.210938 -39.980469 -47.144531 -39.527344 -46.882812 -37.507812 L -46.625 -35.621094 L -46.558594 -34.902344 C -46.558594 -34.707031 -46.234375 -33.015625 -46.101562 -32.296875 L -45.191406 -27.023438 L -44.019531 -20.96875 C -43.953125 -20.445312 -43.238281 -17.386719 -42.914062 -16.214844 L -42.523438 -14.910156 C -42.195312 -13.675781 -41.285156 -11.136719 -40.957031 -10.613281 L -40.175781 -9.050781 L -39.785156 -8.398438 C -39.394531 -7.8125 -38.875 -7.164062 -38.550781 -6.902344 C -38.160156 -6.578125 -37.378906 -6.382812 -37.246094 -6.578125 C -37.183594 -6.835938 -37.3125 -6.96875 -37.636719 -7.03125 C -37.832031 -7.097656 -38.09375 -7.226562 -38.160156 -7.292969 C -38.550781 -7.617188 -39.265625 -8.59375 -39.589844 -9.246094 L -40.046875 -9.898438 C -40.242188 -10.160156 -40.699219 -11.265625 -41.21875 -12.503906 L -41.546875 -13.285156 L -41.675781 -13.609375 C -41.675781 -13.738281 -41.742188 -14 -41.804688 -14.128906 C -42.195312 -14.847656 -43.695312 -21.03125 -44.148438 -23.636719 L -44.539062 -25.589844 C -44.605469 -26.308594 -44.867188 -27.480469 -44.929688 -27.542969 C -44.929688 -27.609375 -44.996094 -27.933594 -44.996094 -28.261719 L -45.125 -28.914062 C -45.191406 -28.976562 -45.191406 -29.109375 -45.191406 -29.304688 C -45.191406 -29.433594 -45.257812 -29.953125 -45.386719 -30.410156 L -46.039062 -34.445312 L -46.101562 -35.097656 L -46.296875 -36.335938 L -46.558594 -38.613281 L -46.625 -39.394531 L -46.753906 -41.546875 L -46.882812 -46.167969 C -46.949219 -46.492188 -46.949219 -46.820312 -46.882812 -46.882812 C -46.882812 -47.015625 -46.820312 -47.015625 -46.558594 -46.820312 L -46.167969 -46.363281 C -45.84375 -46.039062 -45.515625 -45.648438 -45.257812 -45.453125 C -45.125 -45.386719 -45.0625 -45.257812 -45.125 -45.257812 C -45.125 -45.191406 -45.0625 -45.191406 -44.929688 -45.125 C -44.867188 -45.125 -44.605469 -44.929688 -44.476562 -44.734375 C -44.019531 -44.28125 -43.5 -43.757812 -42.847656 -43.171875 L -42.195312 -42.585938 C -42.132812 -42.523438 -42 -42.457031 -41.871094 -42.390625 C -41.804688 -42.328125 -41.742188 -42.261719 -41.742188 -42.195312 C -41.742188 -42.132812 -41.742188 -42.132812 -41.675781 -42.066406 C -41.609375 -42.066406 -41.480469 -42 -41.285156 -41.871094 L -40.4375 -41.089844 C -40.046875 -40.828125 -39.460938 -40.242188 -39.136719 -39.785156 C -38.746094 -39.394531 -38.355469 -39.003906 -38.222656 -38.941406 C -37.898438 -38.808594 -36.855469 -37.964844 -36.921875 -37.832031 C -36.921875 -37.769531 -36.921875 -37.703125 -36.792969 -37.703125 C -36.726562 -37.769531 -35.683594 -36.921875 -35.292969 -36.53125 C -35.097656 -36.269531 -34.902344 -36.074219 -34.511719 -35.816406 C -34.316406 -35.75 -34.1875 -35.554688 -34.121094 -35.488281 C -34.054688 -35.425781 -33.992188 -35.359375 -33.925781 -35.359375 C -33.859375 -35.359375 -33.796875 -35.292969 -33.730469 -35.230469 C -33.730469 -35.097656 -33.664062 -35.097656 -33.601562 -35.097656 C -33.601562 -35.097656 -33.46875 -35.097656 -33.40625 -34.96875 L -33.078125 -34.707031 C -32.949219 -34.640625 -32.820312 -34.511719 -32.820312 -34.445312 C -32.820312 -34.445312 -32.820312 -34.382812 -32.753906 -34.382812 C -32.6875 -34.382812 -32.492188 -34.25 -32.363281 -34.121094 L -32.039062 -33.796875 L -31.84375 -33.730469 L -30.410156 -32.492188 C -30.28125 -32.429688 -30.148438 -32.296875 -30.214844 -32.234375 C -30.214844 -32.167969 -30.214844 -32.101562 -30.148438 -32.101562 C -30.019531 -32.167969 -29.5 -31.710938 -29.5 -31.582031 C -29.5 -31.515625 -29.5 -31.453125 -29.433594 -31.453125 C -29.367188 -31.453125 -29.367188 -31.515625 -29.367188 -31.582031 C -29.433594 -31.648438 -29.367188 -31.648438 -29.304688 -31.515625 L -28.261719 -30.539062 C -28.195312 -30.410156 -27.285156 -29.628906 -26.046875 -28.585938 C -25.851562 -28.390625 -25.722656 -28.195312 -25.722656 -28.195312 C -25.785156 -28.128906 -25.722656 -28.066406 -25.722656 -28.128906 C -25.65625 -28.128906 -25.460938 -28.066406 -25.332031 -27.933594 L -22.660156 -25.65625 C -22.597656 -25.527344 -22.464844 -25.460938 -22.402344 -25.460938 C -22.335938 -25.460938 -22.207031 -25.332031 -22.140625 -25.265625 L -21.75 -24.941406 C -21.488281 -24.875 -21.03125 -24.417969 -20.640625 -23.769531 C -19.46875 -21.945312 -16.539062 -18.363281 -15.757812 -17.84375 L -14.847656 -17.0625 C -13.414062 -15.757812 -11.65625 -14.457031 -9.964844 -13.414062 L -8.789062 -12.828125 L -8.140625 -12.4375 L -7.097656 -11.851562 L -6.511719 -11.589844 C -5.730469 -11.199219 -5.601562 -11.199219 -4.625 -11.332031 C -4.101562 -11.394531 -3.515625 -11.527344 -3.320312 -11.65625 L -2.800781 -11.785156 C -2.667969 -11.785156 -1.367188 -12.566406 -1.300781 -12.699219 L -0.910156 -13.152344 C -0.78125 -13.285156 -0.519531 -13.738281 -0.390625 -14.066406 C -0.195312 -14.519531 -0.195312 -14.714844 -0.195312 -15.300781 Z M -0.714844 -14.585938 C -0.847656 -14 -1.433594 -13.089844 -1.824219 -12.894531 C -2.019531 -12.828125 -2.148438 -12.699219 -2.214844 -12.566406 C -2.277344 -12.503906 -2.34375 -12.4375 -2.410156 -12.4375 C -2.472656 -12.4375 -2.863281 -12.308594 -3.648438 -11.980469 C -4.820312 -11.527344 -5.796875 -11.589844 -6.96875 -12.308594 L -7.8125 -12.761719 L -8.53125 -13.089844 L -9.117188 -13.414062 C -10.027344 -13.871094 -13.285156 -16.148438 -14.066406 -16.929688 C -14.261719 -17.125 -14.457031 -17.257812 -14.519531 -17.257812 L -15.890625 -18.625 C -15.953125 -18.753906 -16.085938 -18.882812 -16.148438 -18.882812 C -16.34375 -18.882812 -18.6875 -21.683594 -18.6875 -21.878906 C -18.6875 -21.945312 -18.753906 -22.007812 -18.753906 -22.007812 C -18.882812 -22.007812 -19.144531 -22.269531 -19.144531 -22.402344 L -19.40625 -22.855469 C -20.054688 -23.636719 -20.054688 -23.574219 -19.859375 -23.574219 C -19.796875 -23.574219 -19.730469 -23.507812 -19.664062 -23.441406 L -19.015625 -22.921875 L -17.777344 -21.945312 L -17.125 -21.488281 L -16.214844 -20.773438 C -12.761719 -17.972656 -11.332031 -16.929688 -10.417969 -16.867188 C -9.964844 -16.800781 -9.964844 -16.800781 -9.964844 -17.0625 C -9.964844 -17.320312 -10.027344 -17.386719 -10.417969 -17.648438 C -10.679688 -17.84375 -11.070312 -18.039062 -11.265625 -18.167969 C -11.917969 -18.492188 -13.023438 -19.273438 -15.238281 -21.097656 L -16.539062 -22.140625 C -16.929688 -22.402344 -18.101562 -23.3125 -18.625 -23.769531 L -19.015625 -24.09375 L -19.535156 -24.417969 L -20.640625 -25.265625 C -21.421875 -25.917969 -22.464844 -27.21875 -23.3125 -28.914062 L -23.574219 -29.304688 L -24.160156 -30.34375 L -24.941406 -31.582031 C -25.265625 -32.039062 -25.785156 -33.015625 -26.046875 -33.535156 C -26.113281 -33.730469 -26.699219 -34.578125 -27.023438 -34.96875 C -27.089844 -35.097656 -27.21875 -35.292969 -27.152344 -35.359375 C -27.152344 -35.425781 -27.21875 -35.488281 -27.285156 -35.488281 C -27.285156 -35.554688 -27.480469 -35.816406 -27.675781 -36.140625 L -29.5625 -39.394531 L -29.757812 -39.722656 C -29.824219 -39.917969 -29.890625 -39.980469 -29.953125 -39.980469 C -29.953125 -40.046875 -30.019531 -40.046875 -30.019531 -40.175781 C -30.019531 -40.242188 -30.148438 -40.503906 -30.34375 -40.828125 C -30.539062 -41.15625 -30.671875 -41.480469 -30.671875 -41.480469 C -30.671875 -41.546875 -30.800781 -41.804688 -30.996094 -42.132812 C -31.125 -42.390625 -31.257812 -42.71875 -31.257812 -42.78125 C -31.257812 -42.847656 -31.386719 -42.976562 -31.453125 -43.109375 C -31.515625 -43.238281 -31.648438 -43.367188 -31.648438 -43.433594 C -31.648438 -43.5 -31.710938 -43.628906 -31.777344 -43.757812 C -31.90625 -43.953125 -31.972656 -44.148438 -32.039062 -44.34375 C -32.039062 -44.476562 -32.234375 -44.996094 -32.429688 -45.453125 C -32.949219 -46.6875 -32.949219 -46.6875 -33.015625 -47.078125 C -33.015625 -47.273438 -33.078125 -47.472656 -33.144531 -47.535156 C -33.210938 -47.667969 -33.535156 -49.035156 -33.601562 -49.425781 L -33.664062 -50.335938 C -33.796875 -50.855469 -33.730469 -50.921875 -33.601562 -51.117188 C -33.535156 -51.183594 -33.339844 -51.246094 -33.210938 -51.246094 C -32.949219 -51.246094 -32.820312 -51.507812 -32.949219 -51.769531 C -33.078125 -51.964844 -33.796875 -52.289062 -34.054688 -52.222656 C -34.445312 -52.160156 -34.578125 -51.769531 -34.511719 -50.792969 C -34.445312 -50.335938 -34.316406 -49.816406 -34.316406 -49.621094 C -34.121094 -49.097656 -33.925781 -48.1875 -33.859375 -47.925781 C -33.859375 -47.796875 -33.730469 -47.472656 -33.601562 -47.144531 L -33.40625 -46.492188 C -33.40625 -46.429688 -33.339844 -46.101562 -33.144531 -45.84375 C -33.015625 -45.453125 -32.949219 -45.257812 -33.015625 -45.257812 C -33.078125 -45.257812 -33.078125 -45.191406 -33.015625 -45.125 C -32.882812 -45.0625 -32.753906 -44.800781 -32.625 -44.476562 L -31.515625 -42 C -31.320312 -41.609375 -31.191406 -41.351562 -31.125 -41.285156 C -31.0625 -41.285156 -31.0625 -41.21875 -31.0625 -41.15625 L -30.671875 -40.371094 L -30.148438 -39.460938 L -29.238281 -37.832031 L -26.828125 -33.925781 L -26.046875 -32.625 L -25.332031 -31.453125 L -24.941406 -30.671875 L -24.417969 -29.824219 C -24.289062 -29.5625 -24.09375 -29.304688 -24.027344 -29.238281 C -24.027344 -29.238281 -23.964844 -29.109375 -23.964844 -29.042969 C -23.964844 -28.976562 -23.898438 -28.914062 -23.898438 -28.914062 C -23.832031 -28.847656 -23.3125 -28 -23.246094 -27.675781 L -23.050781 -27.347656 C -22.855469 -27.089844 -22.988281 -26.957031 -23.117188 -27.152344 C -23.3125 -27.347656 -24.09375 -28.066406 -24.222656 -28.128906 L -24.417969 -28.261719 L -25.917969 -29.628906 L -26.566406 -30.214844 L -27.152344 -30.734375 C -27.414062 -30.929688 -27.738281 -31.257812 -27.933594 -31.453125 L -28.324219 -31.84375 C -28.324219 -31.84375 -28.914062 -32.296875 -29.5625 -32.882812 L -30.28125 -33.535156 C -30.410156 -33.664062 -30.539062 -33.730469 -30.539062 -33.796875 C -30.539062 -33.859375 -30.605469 -33.859375 -30.605469 -33.859375 C -30.671875 -33.859375 -30.929688 -34.054688 -31.125 -34.25 L -31.648438 -34.640625 L -32.558594 -35.425781 L -35.164062 -37.574219 L -35.554688 -37.898438 L -35.816406 -38.160156 C -35.878906 -38.160156 -37.246094 -39.332031 -37.507812 -39.589844 L -38.808594 -40.761719 L -39.199219 -41.15625 C -39.332031 -41.285156 -39.65625 -41.675781 -39.851562 -42 C -40.046875 -42.390625 -40.371094 -42.914062 -40.566406 -43.171875 C -40.699219 -43.433594 -40.957031 -43.757812 -41.023438 -43.953125 L -41.480469 -44.671875 C -41.675781 -44.800781 -41.742188 -44.996094 -41.742188 -45.125 C -41.742188 -45.191406 -41.871094 -45.386719 -41.9375 -45.515625 C -42.066406 -45.648438 -42.066406 -45.777344 -42.066406 -45.84375 C -42 -45.90625 -42 -45.90625 -42.066406 -45.90625 C -42.132812 -45.84375 -42.195312 -45.90625 -42.195312 -45.972656 L -42.585938 -46.6875 C -43.109375 -47.863281 -44.34375 -50.921875 -44.605469 -51.703125 L -44.867188 -52.613281 C -44.996094 -52.941406 -45.320312 -54.699219 -45.515625 -55.804688 C -45.648438 -57.109375 -45.582031 -59.191406 -45.320312 -59.777344 C -45.257812 -59.972656 -45.125 -60.300781 -44.996094 -60.429688 C -44.800781 -60.753906 -44.148438 -60.886719 -43.628906 -60.691406 L -43.042969 -60.625 C -42.71875 -60.558594 -40.503906 -59.84375 -40.242188 -59.648438 L -39.785156 -59.453125 L -39.136719 -59.191406 L -37.898438 -58.476562 L -37.183594 -57.953125 C -35.683594 -56.976562 -35.230469 -56.585938 -34.902344 -56.261719 C -34.773438 -56.132812 -34.707031 -56.066406 -34.707031 -56.132812 C -34.773438 -56.261719 -34.445312 -56.066406 -33.210938 -55.089844 L -32.234375 -54.375 C -32.101562 -54.308594 -31.257812 -53.589844 -31.320312 -53.527344 L -31.257812 -53.527344 C -31.191406 -53.589844 -31.125 -53.527344 -31.0625 -53.394531 C -30.996094 -53.265625 -30.867188 -53.199219 -30.867188 -53.199219 C -30.800781 -53.199219 -30.605469 -53.070312 -30.410156 -52.875 C -30.148438 -52.679688 -29.953125 -52.484375 -29.824219 -52.484375 C -29.757812 -52.417969 -29.695312 -52.355469 -29.695312 -52.289062 C -29.695312 -52.222656 -29.628906 -52.160156 -29.628906 -52.160156 C -29.5625 -52.160156 -29.171875 -51.898438 -28.78125 -51.574219 L -27.933594 -50.855469 C -27.804688 -50.855469 -27.804688 -50.726562 -27.871094 -50.660156 C -27.871094 -50.597656 -27.871094 -50.53125 -27.804688 -50.597656 C -27.675781 -50.660156 -27.089844 -50.207031 -27.023438 -50.011719 C -27.023438 -50.011719 -27.023438 -49.945312 -26.957031 -49.945312 C -26.957031 -49.945312 -26.632812 -49.621094 -26.175781 -49.292969 L -24.875 -48.058594 C -24.355469 -47.601562 -23.898438 -47.078125 -22.988281 -46.167969 C -22.792969 -45.972656 -22.597656 -45.777344 -22.53125 -45.777344 C -22.464844 -45.777344 -22.464844 -45.710938 -22.464844 -45.710938 C -22.464844 -45.648438 -22.074219 -45.191406 -21.554688 -44.734375 C -21.097656 -44.214844 -20.707031 -43.824219 -20.707031 -43.757812 C -20.707031 -43.695312 -20.640625 -43.695312 -20.640625 -43.695312 C -20.578125 -43.695312 -20.25 -43.367188 -19.925781 -43.042969 L -19.273438 -42.390625 L -18.753906 -41.804688 L -17.90625 -40.828125 C -17.191406 -40.113281 -16.605469 -39.460938 -16.410156 -39.265625 C -16.28125 -39.070312 -16.148438 -39.003906 -16.148438 -39.003906 C -16.085938 -39.003906 -15.953125 -38.875 -15.824219 -38.746094 L -14.128906 -37.050781 L -13.414062 -36.207031 L -12.632812 -35.359375 C -12.503906 -35.164062 -12.308594 -35.035156 -12.308594 -35.035156 C -12.242188 -35.035156 -11.980469 -34.707031 -11.65625 -34.316406 C -11.332031 -33.992188 -11.070312 -33.664062 -11.136719 -33.664062 L -10.941406 -33.46875 C -10.679688 -33.273438 -10.613281 -33.144531 -8.921875 -31.125 C -7.75 -29.695312 -6.96875 -28.71875 -6.316406 -27.675781 L -5.730469 -26.894531 C -4.882812 -25.917969 -3.058594 -22.855469 -2.605469 -21.683594 C -2.472656 -21.488281 -2.410156 -21.292969 -2.34375 -21.292969 C -2.277344 -21.292969 -2.277344 -21.226562 -2.277344 -21.164062 C -2.277344 -21.097656 -2.148438 -20.640625 -1.953125 -20.25 L -1.433594 -18.882812 L -1.171875 -18.039062 C -0.847656 -16.996094 -0.585938 -15.171875 -0.714844 -14.585938 Z M -0.714844 -14.585938 "/></g></g></g><g fill="#1f2122" fill-opacity="1"><g transform="translate(218.287658, 203.005287)"><g><path d="M -17.777344 -1.433594 C -17.710938 -1.691406 -17.710938 -1.953125 -17.777344 -2.214844 L -17.777344 -2.410156 C -17.777344 -2.410156 -18.039062 -3.582031 -18.625 -4.820312 L -20.316406 -8.53125 C -20.382812 -8.660156 -20.578125 -8.660156 -20.640625 -8.53125 L -20.707031 -8.464844 L -20.707031 -8.269531 L -20.640625 -8.140625 C -19.40625 -5.273438 -18.625 -3.320312 -18.429688 -2.472656 C -18.429688 -2.472656 -18.167969 -1.628906 -18.429688 -1.5625 C -19.015625 -1.300781 -19.730469 -1.757812 -20.121094 -2.082031 C -20.445312 -2.34375 -21.226562 -2.996094 -21.226562 -2.214844 C -21.226562 -2.082031 -21.292969 -1.886719 -21.359375 -1.886719 C -21.617188 -1.824219 -21.554688 -1.628906 -20.96875 -0.519531 C -20.445312 0.457031 -19.664062 1.691406 -19.015625 2.472656 C -18.753906 2.800781 -18.625 2.929688 -18.429688 2.929688 C -18.101562 2.929688 -18.039062 2.734375 -18.039062 2.34375 C -18.039062 2.019531 -18.6875 0.714844 -19.078125 0.195312 C -19.535156 -0.324219 -19.992188 -1.171875 -19.925781 -1.171875 L -19.46875 -0.976562 C -19.273438 -0.847656 -19.015625 -0.78125 -18.820312 -0.78125 C -18.558594 -0.714844 -18.363281 -0.714844 -18.101562 -0.910156 C -17.90625 -1.042969 -17.777344 -1.171875 -17.777344 -1.433594 Z M -18.625 2.214844 L -18.882812 1.824219 C -19.273438 1.433594 -19.992188 0.390625 -20.382812 -0.457031 C -20.773438 -1.105469 -20.773438 -1.238281 -20.640625 -1.238281 C -20.578125 -1.238281 -20.445312 -1.042969 -20.382812 -0.847656 C -20.121094 -0.324219 -19.925781 -0.0664062 -19.796875 0.0664062 C -19.664062 0.195312 -19.015625 1.300781 -18.753906 1.824219 Z M -18.625 2.214844 "/></g></g></g><g fill="#1f2122" fill-opacity="1"><g transform="translate(218.287658, 194.670247)"><g><path d="M -17.515625 1.757812 C -17.710938 1.628906 -17.972656 1.238281 -18.167969 0.976562 L -18.6875 0.261719 C -18.949219 0 -19.144531 -0.390625 -19.796875 -1.757812 L -20.1875 -2.472656 C -20.316406 -2.800781 -20.316406 -2.863281 -20.121094 -3.125 C -19.925781 -3.515625 -19.992188 -4.039062 -20.316406 -4.949219 L -20.835938 -5.992188 L -21.164062 -6.707031 C -21.226562 -6.835938 -21.292969 -7.164062 -21.292969 -7.292969 C -21.292969 -7.488281 -21.359375 -7.617188 -21.488281 -7.8125 C -21.878906 -8.203125 -22.074219 -8.269531 -22.269531 -8.140625 C -22.53125 -8.007812 -22.53125 -7.8125 -22.140625 -7.292969 C -22.007812 -7.03125 -21.878906 -6.835938 -21.878906 -6.773438 C -21.878906 -6.707031 -21.8125 -6.511719 -21.683594 -6.316406 C -21.292969 -5.730469 -20.707031 -4.429688 -20.707031 -4.039062 C -20.707031 -3.90625 -20.773438 -3.84375 -20.96875 -3.777344 C -21.359375 -3.710938 -21.421875 -3.515625 -21.226562 -3.125 C -21.097656 -2.996094 -20.511719 -1.628906 -20.316406 -1.300781 L -20.054688 -0.714844 C -19.925781 -0.519531 -20.1875 -0.714844 -20.640625 -1.238281 C -21.226562 -1.886719 -21.617188 -2.019531 -21.75 -1.628906 C -21.8125 -1.433594 -21.8125 -1.300781 -21.617188 -1.042969 C -21.292969 -0.457031 -19.796875 1.042969 -19.144531 1.5625 L -18.429688 2.148438 C -18.167969 2.34375 -17.90625 2.539062 -17.777344 2.605469 C -17.257812 2.667969 -17.125 2.082031 -17.515625 1.757812 Z M -17.515625 1.757812 "/></g></g></g><g fill="#1f2122" fill-opacity="1"><g transform="translate(218.287658, 184.51191)"><g><path d="M -17.515625 1.757812 C -17.710938 1.628906 -17.972656 1.238281 -18.167969 0.976562 L -18.6875 0.261719 C -18.949219 0 -19.144531 -0.390625 -19.796875 -1.757812 L -20.1875 -2.472656 C -20.316406 -2.800781 -20.316406 -2.863281 -20.121094 -3.125 C -19.925781 -3.515625 -19.992188 -4.039062 -20.316406 -4.949219 L -20.835938 -5.992188 L -21.164062 -6.707031 C -21.226562 -6.835938 -21.292969 -7.164062 -21.292969 -7.292969 C -21.292969 -7.488281 -21.359375 -7.617188 -21.488281 -7.8125 C -21.878906 -8.203125 -22.074219 -8.269531 -22.269531 -8.140625 C -22.53125 -8.007812 -22.53125 -7.8125 -22.140625 -7.292969 C -22.007812 -7.03125 -21.878906 -6.835938 -21.878906 -6.773438 C -21.878906 -6.707031 -21.8125 -6.511719 -21.683594 -6.316406 C -21.292969 -5.730469 -20.707031 -4.429688 -20.707031 -4.039062 C -20.707031 -3.90625 -20.773438 -3.84375 -20.96875 -3.777344 C -21.359375 -3.710938 -21.421875 -3.515625 -21.226562 -3.125 C -21.097656 -2.996094 -20.511719 -1.628906 -20.316406 -1.300781 L -20.054688 -0.714844 C -19.925781 -0.519531 -20.1875 -0.714844 -20.640625 -1.238281 C -21.226562 -1.886719 -21.617188 -2.019531 -21.75 -1.628906 C -21.8125 -1.433594 -21.8125 -1.300781 -21.617188 -1.042969 C -21.292969 -0.457031 -19.796875 1.042969 -19.144531 1.5625 L -18.429688 2.148438 C -18.167969 2.34375 -17.90625 2.539062 -17.777344 2.605469 C -17.257812 2.667969 -17.125 2.082031 -17.515625 1.757812 Z M -17.515625 1.757812 "/></g></g></g><g fill="#1f2122" fill-opacity="1"><g transform="translate(218.287658, 174.353573)"><g><path d="M -17.777344 -1.433594 C -17.710938 -1.691406 -17.710938 -1.953125 -17.777344 -2.214844 L -17.777344 -2.410156 C -17.777344 -2.410156 -18.039062 -3.582031 -18.625 -4.820312 L -20.316406 -8.53125 C -20.382812 -8.660156 -20.578125 -8.660156 -20.640625 -8.53125 L -20.707031 -8.464844 L -20.707031 -8.269531 L -20.640625 -8.140625 C -19.40625 -5.273438 -18.625 -3.320312 -18.429688 -2.472656 C -18.429688 -2.472656 -18.167969 -1.628906 -18.429688 -1.5625 C -19.015625 -1.300781 -19.730469 -1.757812 -20.121094 -2.082031 C -20.445312 -2.34375 -21.226562 -2.996094 -21.226562 -2.214844 C -21.226562 -2.082031 -21.292969 -1.886719 -21.359375 -1.886719 C -21.617188 -1.824219 -21.554688 -1.628906 -20.96875 -0.519531 C -20.445312 0.457031 -19.664062 1.691406 -19.015625 2.472656 C -18.753906 2.800781 -18.625 2.929688 -18.429688 2.929688 C -18.101562 2.929688 -18.039062 2.734375 -18.039062 2.34375 C -18.039062 2.019531 -18.6875 0.714844 -19.078125 0.195312 C -19.535156 -0.324219 -19.992188 -1.171875 -19.925781 -1.171875 L -19.46875 -0.976562 C -19.273438 -0.847656 -19.015625 -0.78125 -18.820312 -0.78125 C -18.558594 -0.714844 -18.363281 -0.714844 -18.101562 -0.910156 C -17.90625 -1.042969 -17.777344 -1.171875 -17.777344 -1.433594 Z M -18.625 2.214844 L -18.882812 1.824219 C -19.273438 1.433594 -19.992188 0.390625 -20.382812 -0.457031 C -20.773438 -1.105469 -20.773438 -1.238281 -20.640625 -1.238281 C -20.578125 -1.238281 -20.445312 -1.042969 -20.382812 -0.847656 C -20.121094 -0.324219 -19.925781 -0.0664062 -19.796875 0.0664062 C -19.664062 0.195312 -19.015625 1.300781 -18.753906 1.824219 Z M -18.625 2.214844 "/></g></g></g><g fill="#1f2122" fill-opacity="1"><g transform="translate(218.287658, 166.018533)"><g><path d="M -17.453125 -3.84375 L -17.648438 -5.210938 C -17.90625 -6.445312 -18.6875 -8.660156 -18.6875 -8.660156 L -19.078125 -9.574219 L -19.40625 -10.289062 L -19.601562 -10.679688 C -19.859375 -11.199219 -19.859375 -11.265625 -20.054688 -11.785156 C -20.316406 -12.503906 -20.445312 -12.828125 -20.640625 -12.371094 C -20.707031 -12.242188 -20.578125 -11.785156 -19.992188 -10.417969 C -19.601562 -9.441406 -19.078125 -8.074219 -18.882812 -7.421875 C -17.90625 -4.296875 -17.710938 -2.734375 -18.558594 -2.734375 C -18.820312 -2.667969 -19.144531 -2.800781 -19.601562 -3.257812 C -20.1875 -3.777344 -21.292969 -3.777344 -20.578125 -2.800781 C -20.445312 -2.667969 -20.316406 -2.34375 -20.1875 -2.082031 L -19.273438 0 L -19.992188 -0.457031 C -20.382812 -0.652344 -20.382812 -0.652344 -20.640625 -0.457031 C -20.96875 -0.195312 -20.902344 0.0664062 -20.25 0.519531 L -19.664062 0.976562 C -19.339844 1.105469 -18.558594 1.628906 -18.296875 1.886719 L -18.101562 1.886719 C -17.90625 2.019531 -17.648438 1.824219 -17.648438 1.5625 C -17.582031 1.496094 -17.710938 1.300781 -17.777344 1.105469 C -18.167969 0.519531 -19.273438 -1.496094 -19.601562 -2.148438 L -19.601562 -2.214844 L -19.339844 -2.082031 L -19.273438 -2.082031 L -19.078125 -1.953125 C -18.753906 -1.757812 -17.972656 -1.886719 -17.777344 -2.148438 C -17.453125 -2.539062 -17.386719 -3.191406 -17.453125 -3.84375 Z M -17.453125 -3.84375 "/></g></g></g><g fill="#1f2122" fill-opacity="1"><g transform="translate(218.287658, 153.776436)"><g><path d="M -17.777344 0.652344 C -17.90625 -0.0664062 -18.039062 -0.519531 -18.625 -1.691406 L -19.925781 -4.625 L -20.316406 -5.46875 C -20.382812 -5.535156 -20.578125 -5.535156 -20.640625 -5.40625 L -20.707031 -5.339844 L -20.707031 -5.144531 L -20.640625 -5.015625 C -19.078125 -1.433594 -18.296875 0.714844 -18.429688 1.105469 C -18.492188 1.238281 -18.558594 1.238281 -18.753906 1.042969 C -19.015625 0.910156 -19.078125 0.78125 -19.210938 0.324219 C -19.40625 -0.390625 -19.730469 -1.042969 -20.511719 -2.148438 C -21.226562 -3.191406 -21.617188 -3.648438 -21.8125 -3.582031 C -22.207031 -3.453125 -22.140625 -2.863281 -21.75 -1.824219 C -21.292969 -0.519531 -20.121094 0.976562 -19.078125 1.628906 C -18.558594 1.953125 -18.363281 2.019531 -18.101562 1.886719 C -17.648438 1.824219 -17.648438 1.691406 -17.777344 0.652344 Z M -19.925781 0.128906 C -20.121094 0.0664062 -20.902344 -1.042969 -21.03125 -1.496094 C -21.226562 -1.886719 -21.488281 -2.539062 -21.359375 -2.539062 C -21.292969 -2.472656 -20.640625 -1.496094 -20.316406 -0.910156 C -19.925781 -0.195312 -19.796875 0.261719 -19.925781 0.128906 Z M -19.925781 0.128906 "/></g></g></g><g fill="#1f2122" fill-opacity="1"><g transform="translate(218.287658, 148.567035)"><g><path d="M -22.402344 -2.734375 C -22.464844 -2.996094 -22.921875 -3.257812 -23.183594 -3.191406 C -23.3125 -3.191406 -23.441406 -3.058594 -23.507812 -2.996094 C -23.703125 -2.734375 -23.574219 -2.472656 -23.183594 -2.410156 C -22.988281 -2.410156 -22.855469 -2.34375 -22.792969 -2.277344 C -22.660156 -2.082031 -22.269531 -2.472656 -22.402344 -2.734375 Z M -17.710938 0.976562 C -17.777344 0.261719 -18.167969 -0.976562 -18.625 -2.019531 L -19.925781 -4.882812 L -20.25 -5.664062 C -20.382812 -5.859375 -20.578125 -5.859375 -20.640625 -5.730469 L -20.707031 -5.601562 L -20.707031 -5.46875 L -20.640625 -5.339844 C -19.40625 -2.472656 -18.625 -0.519531 -18.429688 0.390625 C -18.429688 0.390625 -18.234375 0.910156 -18.363281 1.171875 C -18.625 1.171875 -18.882812 1.105469 -19.144531 0.910156 L -20.054688 -0.195312 C -20.707031 -0.976562 -21.03125 -1.171875 -21.164062 -0.847656 C -21.226562 -0.714844 -21.03125 -0.195312 -20.707031 0.261719 C -19.730469 1.433594 -19.078125 1.953125 -18.429688 1.953125 L -18.234375 1.953125 C -17.84375 1.953125 -17.648438 1.628906 -17.710938 0.976562 Z M -17.710938 0.976562 "/></g></g></g><g fill="#1f2122" fill-opacity="1"><g transform="translate(218.287658, 143.097159)"><g><path d="M -16.476562 -1.042969 C -16.671875 -2.734375 -17.257812 -5.730469 -18.363281 -8.335938 C -19.078125 -10.027344 -19.078125 -10.289062 -20.121094 -12.503906 L -20.25 -12.699219 C -20.707031 -13.609375 -20.773438 -12.957031 -20.707031 -12.699219 C -20.640625 -12.699219 -18.949219 -8.398438 -18.882812 -8.398438 C -17.972656 -5.992188 -17.257812 -3.582031 -17.0625 -0.519531 C -17.0625 0.585938 -17.386719 0.976562 -17.710938 1.105469 C -17.90625 1.171875 -18.492188 1.300781 -18.949219 0.976562 L -19.273438 0.714844 C -20.1875 -0.128906 -21.226562 -1.5625 -21.292969 -2.148438 L -21.292969 -2.410156 L -20.96875 -2.082031 C -20.707031 -1.886719 -20.511719 -1.757812 -20.445312 -1.824219 L -20.25 -1.886719 C -20.1875 -1.886719 -20.1875 -2.019531 -20.1875 -2.082031 C -20.25 -2.34375 -21.359375 -3.257812 -21.617188 -3.191406 C -21.8125 -3.191406 -22.074219 -2.800781 -22.007812 -2.539062 C -21.878906 -1.691406 -21.226562 -0.195312 -20.054688 0.976562 C -19.40625 1.628906 -18.949219 1.953125 -18.234375 1.953125 C -17.648438 1.953125 -16.800781 1.5625 -16.605469 0.714844 C -16.476562 0.195312 -16.410156 -0.0664062 -16.476562 -1.042969 Z M -16.476562 -1.042969 "/></g></g></g><g fill="#1f2122" fill-opacity="1"><g transform="translate(218.287658, 130.399241)"><g><path d="M -17.777344 -1.433594 C -17.710938 -1.691406 -17.710938 -1.953125 -17.777344 -2.214844 L -17.777344 -2.410156 C -17.777344 -2.410156 -18.039062 -3.582031 -18.625 -4.820312 L -20.316406 -8.53125 C -20.382812 -8.660156 -20.578125 -8.660156 -20.640625 -8.53125 L -20.707031 -8.464844 L -20.707031 -8.269531 L -20.640625 -8.140625 C -19.40625 -5.273438 -18.625 -3.320312 -18.429688 -2.472656 C -18.429688 -2.472656 -18.167969 -1.628906 -18.429688 -1.5625 C -19.015625 -1.300781 -19.730469 -1.757812 -20.121094 -2.082031 C -20.445312 -2.34375 -21.226562 -2.996094 -21.226562 -2.214844 C -21.226562 -2.082031 -21.292969 -1.886719 -21.359375 -1.886719 C -21.617188 -1.824219 -21.554688 -1.628906 -20.96875 -0.519531 C -20.445312 0.457031 -19.664062 1.691406 -19.015625 2.472656 C -18.753906 2.800781 -18.625 2.929688 -18.429688 2.929688 C -18.101562 2.929688 -18.039062 2.734375 -18.039062 2.34375 C -18.039062 2.019531 -18.6875 0.714844 -19.078125 0.195312 C -19.535156 -0.324219 -19.992188 -1.171875 -19.925781 -1.171875 L -19.46875 -0.976562 C -19.273438 -0.847656 -19.015625 -0.78125 -18.820312 -0.78125 C -18.558594 -0.714844 -18.363281 -0.714844 -18.101562 -0.910156 C -17.90625 -1.042969 -17.777344 -1.171875 -17.777344 -1.433594 Z M -18.625 2.214844 L -18.882812 1.824219 C -19.273438 1.433594 -19.992188 0.390625 -20.382812 -0.457031 C -20.773438 -1.105469 -20.773438 -1.238281 -20.640625 -1.238281 C -20.578125 -1.238281 -20.445312 -1.042969 -20.382812 -0.847656 C -20.121094 -0.324219 -19.925781 -0.0664062 -19.796875 0.0664062 C -19.664062 0.195312 -19.015625 1.300781 -18.753906 1.824219 Z M -18.625 2.214844 "/></g></g></g></svg>